<?xml version="1.0" encoding="iso-8859-1"?>
<!-- Generator: Adobe Illustrator 19.0.0, SVG Export Plug-In . SVG Version: 6.00 Build 0)  -->
<svg version="1.1" id="Layer_1" xmlns="http://www.w3.org/2000/svg" xmlns:xlink="http://www.w3.org/1999/xlink" x="0px" y="0px"
	 viewBox="0 0 508 508" style="enable-background:new 0 0 508 508;" xml:space="preserve">
<g>
	<g>
		<path d="M493.949,0h-479.8c-7.8,0-14.1,6.3-14.1,14.1v464.1c0,7.8,6.3,14.1,14.1,14.1h24v1.6c0,7.8,6.3,14.1,14.1,14.1
			s14.1-6.3,14.1-14.1v-1.6h375.3v1.6c0,7.8,6.3,14.1,14.1,14.1c7.8,0,14.1-6.3,14.1-14.1v-1.6h24c7.8,0,14.1-6.3,14.1-14.1V14.1
			C508.049,6.3,501.749,0,493.949,0z M479.849,464.1L479.849,464.1h-451.6V337.6h451.6V464.1z M176.649,309.4v-85.5l29.8,85.5
			H176.649z M479.849,309.4L479.849,309.4h-243.5l-34.5-99.2l-25.1,8.7v-7.2h-28.2v97.7h-15.6v-97.7h-28.2v97.7h-15.8v-97.7h-28.2
			v97.7h-32.5V182.9h451.6V309.4z M479.849,154.7L479.849,154.7h-347V57h-28.2v97.7h-15.7V57h-28.2v97.7h-32.5V28.2h451.6V154.7z"/>
	</g>
</g>
<g>
</g>
<g>
</g>
<g>
</g>
<g>
</g>
<g>
</g>
<g>
</g>
<g>
</g>
<g>
</g>
<g>
</g>
<g>
</g>
<g>
</g>
<g>
</g>
<g>
</g>
<g>
</g>
<g>
</g>
</svg>
